# xmcd
#
# Track frame offsets: 
#        150
#        22802
#        48215
#        75485
#
# Disc length: 1288 seconds
#
# Revision: 2
# Processed by: cddbd v1.5.2PL0 Copyright (c) Steve Scherf et al.
# Submitted via: ExactAudioCopyFreeDBPlugin 1.0
#
DISCID=1c050604
DTITLE=尾崎豊 - TEENBEAT BOX Disc 4  RARE TRACKS
DYEAR=1995
DGENRE=Rock
TTITLE0=十七歳の地図 (Single Version)
TTITLE1=Scrambling Rock'n'Roll (12inch Version)
TTITLE2=Driving All Night ('85.8.25大阪球場Live)
TTITLE3=Seventeen's Map'85 ('85.8.25大阪球場Live)
EXTD=
EXTT0=
EXTT1=
EXTT2=
EXTT3=
PLAYORDER=
